# xmcd
#
# Track frame offsets: 
#        150
#        21953
#        39934
#        54486
#        69518
#        85266
#        99281
#        116821
#        131364
#        144729
#        155162
#        171870
#        193673
#        208194
#        226359
#        238223
#        255211
#        269914
#        285160
#        297775
#        310012
#        326122
#
# Disc length: 4559 seconds
#
# Revision: 0
# Processed by: cddbd v1.5.2PL0 Copyright (c) Steve Scherf et al.
# Submitted via: ExactAudioCopy v0.99pb5
#
DISCID=4411cd16
DTITLE=Madeleine Peyroux - Best of
DYEAR=1900
DGENRE=Rhythmic Soul
TTITLE0=Walkin After Midnight
TTITLE1=Dance me to the end of Love
TTITLE2=Don't wait too lon
TTITLE3=Don't cry Baby
TTITLE4=You're gonna make me lonesome when you go
TTITLE5=Reckless Blues
TTITLE6=Careless Love
TTITLE7=Lonesome road
TTITLE8=J'ai deux amours
TTITLE9=Lovesick Blues
TTITLE10=Weary Blues
TTITLE11=I'll look around
TTITLE12=This is Heaven to me
TTITLE13=Hey sweet man
TTITLE14=A prayer
TTITLE15=I'm gonna sit right down and write myself a letter
TTITLE16=(Getting some) Fun out of Life
TTITLE17=La Vie en Rose
TTITLE18=Was I?
TTITLE19=Always a use
TTITLE20=Muddy water
TTITLE21=Dreamland
EXTD=
EXTT0=
EXTT1=
EXTT2=
EXTT3=
EXTT4=
EXTT5=
EXTT6=
EXTT7=
EXTT8=
EXTT9=
EXTT10=
EXTT11=
EXTT12=
EXTT13=
EXTT14=
EXTT15=
EXTT16=
EXTT17=
EXTT18=
EXTT19=
EXTT20=
EXTT21=
PLAYORDER=
